<svg width="144" height="35" viewBox="0 0 144 35" fill="none" xmlns="http://www.w3.org/2000/svg">
<path d="M19.1152 25.4199C19.1152 24.1471 18.666 23.1738 17.7676 22.5C16.8691 21.8112 15.252 21.0924 12.916 20.3438C10.5801 19.5801 8.73079 18.8314 7.36816 18.0977C3.65462 16.0911 1.79785 13.3883 1.79785 9.98926C1.79785 8.22233 2.29199 6.65007 3.28027 5.27246C4.28353 3.87988 5.71354 2.79427 7.57031 2.01562C9.44206 1.23698 11.5384 0.847656 13.8594 0.847656C16.1953 0.847656 18.2767 1.27441 20.1035 2.12793C21.9303 2.96647 23.3454 4.1569 24.3486 5.69922C25.3669 7.24154 25.876 8.99349 25.876 10.9551H19.1377C19.1377 9.45768 18.666 8.2972 17.7227 7.47363C16.7793 6.63509 15.4541 6.21582 13.7471 6.21582C12.0999 6.21582 10.8197 6.56771 9.90625 7.27148C8.99284 7.96029 8.53613 8.8737 8.53613 10.0117C8.53613 11.0749 9.06771 11.9658 10.1309 12.6846C11.209 13.4033 12.7887 14.0771 14.8701 14.7061C18.7035 15.859 21.4961 17.2891 23.248 18.9961C25 20.7031 25.876 22.8294 25.876 25.375C25.876 28.2051 24.8053 30.4287 22.6641 32.0459C20.5228 33.6481 17.6403 34.4492 14.0166 34.4492C11.501 34.4492 9.20996 33.9925 7.14355 33.0791C5.07715 32.1507 3.4974 30.8854 2.4043 29.2832C1.32617 27.681 0.787109 25.8242 0.787109 23.7129H7.54785C7.54785 27.3216 9.7041 29.126 14.0166 29.126C15.6188 29.126 16.8691 28.804 17.7676 28.1602C18.666 27.5013 19.1152 26.5879 19.1152 25.4199ZM37.1963 22.4775V34H30.458V1.29688H43.2158C45.6715 1.29688 47.8278 1.74609 49.6846 2.64453C51.5563 3.54297 52.9938 4.82324 53.9971 6.48535C55.0003 8.13249 55.502 10.0117 55.502 12.123C55.502 15.3275 54.4014 17.8581 52.2002 19.7148C50.014 21.5566 46.9818 22.4775 43.1035 22.4775H37.1963ZM37.1963 17.0195H43.2158C44.9977 17.0195 46.3529 16.6003 47.2812 15.7617C48.2246 14.9232 48.6963 13.7253 48.6963 12.168C48.6963 10.5658 48.2246 9.27051 47.2812 8.28223C46.3379 7.29395 45.0352 6.78483 43.373 6.75488H37.1963V17.0195ZM74.6162 27.2617H62.8018L60.5557 34H53.3906L65.5645 1.29688H71.8086L84.0498 34H76.8848L74.6162 27.2617ZM64.6211 21.8037H72.7969L68.6865 9.5625L64.6211 21.8037ZM99.2109 22.0283H93.8428V34H87.1045V1.29688H99.2559C103.119 1.29688 106.099 2.15788 108.195 3.87988C110.292 5.60189 111.34 8.03516 111.34 11.1797C111.34 13.4108 110.853 15.2751 109.88 16.7725C108.922 18.2549 107.462 19.4378 105.5 20.3213L112.575 33.6855V34H105.343L99.2109 22.0283ZM93.8428 16.5703H99.2783C100.97 16.5703 102.281 16.1436 103.209 15.29C104.137 14.4215 104.602 13.2311 104.602 11.7188C104.602 10.1764 104.16 8.96354 103.276 8.08008C102.408 7.19661 101.068 6.75488 99.2559 6.75488H93.8428V16.5703ZM126.726 20.8828L123.222 24.6562V34H116.483V1.29688H123.222V16.1211L126.187 12.0557L134.52 1.29688H142.808L131.195 15.8291L143.145 34H135.126L126.726 20.8828Z" fill="#211E22"/>
</svg>
