<svg width="203" height="33" viewBox="0 0 203 33" fill="none" xmlns="http://www.w3.org/2000/svg">
<path d="M7.04004 21.4775V33H0.301758V0.296875H13.0596C15.5153 0.296875 17.6715 0.746094 19.5283 1.64453C21.4001 2.54297 22.8376 3.82324 23.8408 5.48535C24.8441 7.13249 25.3457 9.01172 25.3457 11.123C25.3457 14.3275 24.2451 16.8581 22.0439 18.7148C19.8577 20.5566 16.8255 21.4775 12.9473 21.4775H7.04004ZM7.04004 16.0195H13.0596C14.8415 16.0195 16.1966 15.6003 17.125 14.7617C18.0684 13.9232 18.54 12.7253 18.54 11.168C18.54 9.56576 18.0684 8.27051 17.125 7.28223C16.1816 6.29395 14.8789 5.78483 13.2168 5.75488H7.04004V16.0195ZM36.7334 27.5869H51.041V33H29.9951V0.296875H36.7334V27.5869ZM73.8389 26.2617H62.0244L59.7783 33H52.6133L64.7871 0.296875H71.0312L83.2725 33H76.1074L73.8389 26.2617ZM63.8438 20.8037H72.0195L67.9092 8.5625L63.8438 20.8037ZM112.921 33H106.183L93.0654 11.4824V33H86.3271V0.296875H93.0654L106.205 21.8594V0.296875H112.921V33ZM145.399 33H138.661L125.544 11.4824V33H118.806V0.296875H125.544L138.684 21.8594V0.296875H145.399V33ZM170.96 18.8271H158.022V27.5869H173.206V33H151.284V0.296875H173.161V5.75488H158.022V13.5488H170.96V18.8271ZM189.266 21.0283H183.897V33H177.159V0.296875H189.311C193.174 0.296875 196.154 1.15788 198.25 2.87988C200.346 4.60189 201.395 7.03516 201.395 10.1797C201.395 12.4108 200.908 14.2751 199.935 15.7725C198.976 17.2549 197.516 18.4378 195.555 19.3213L202.63 32.6855V33H195.397L189.266 21.0283ZM183.897 15.5703H189.333C191.025 15.5703 192.335 15.1436 193.264 14.29C194.192 13.4215 194.656 12.2311 194.656 10.7188C194.656 9.17643 194.215 7.96354 193.331 7.08008C192.463 6.19661 191.122 5.75488 189.311 5.75488H183.897V15.5703Z" fill="#211E22"/>
</svg>
